<svg xmlns="http://www.w3.org/2000/svg" data-v-fadc40ce="" width="38" height="41"><path data-v-fadc40ce="" d="M20.1 25.881a2.397 2.397 0 001.756-.983l6.306-8.718a.674.674 0 00-.94-.941l-8.72 6.308a2.398 2.398 0 001.6 4.334zm-1.236-2.475c.023-.307.18-.588.429-.769l5.319-3.848-3.847 5.318a1.054 1.054 0 01-1.901-.7zm16.324-9.935a18.064 18.064 0 012.423 9.05 18.06 18.06 0 01-2.423 9.05c-.007.014-.006.029-.014.043-.012.02-.028.034-.04.053a18.32 18.32 0 01-6.584 6.574c-.012.01-.02.022-.033.03-.02.012-.043.017-.064.026a18.069 18.069 0 01-8.904 2.407l-.015.003-.012-.002-.098.002c-1.363 0-2.736-.156-4.08-.466a.673.673 0 11.3-1.313c1.063.244 2.142.379 3.218.416v-1.33a.673.673 0 111.347 0v1.325a16.708 16.708 0 007.043-1.917l-.664-1.15a.673.673 0 111.166-.673l.662 1.147a16.97 16.97 0 005.235-5.235l-1.147-.662a.674.674 0 01.674-1.167l1.15.664a16.718 16.718 0 001.919-7.152h-1.33a.673.673 0 110-1.348h1.33c-.102-2.573-.784-5-1.92-7.152l-1.15.664a.673.673 0 01-.675-1.167l1.148-.662a16.97 16.97 0 00-5.235-5.235l-.662 1.147a.672.672 0 11-1.167-.673l.664-1.15A16.708 16.708 0 0020.207 5.7v1.327a.673.673 0 11-1.347 0v-1.33c-.198.01-.401.021-.622.038l-.723.056a17.13 17.13 0 00-1.872.321.673.673 0 11-.302-1.312 18.527 18.527 0 012.172-.36v-.78h-1.01a1.685 1.685 0 01-1.684-1.683c0-.93.755-1.684 1.684-1.684h6.062c.929 0 1.685.755 1.685 1.684 0 .928-.756 1.684-1.684 1.684h-1.01v.802a18.06 18.06 0 016.919 2.293c.014.007.029.006.043.014.013.009.02.021.034.03a18.29 18.29 0 013.239 2.402l1.447-1.446-.953-.953 2.858-2.858L38 6.803 35.143 9.66l-.953-.953-1.447 1.446c.915.985 1.72 2.072 2.402 3.24.008.013.021.02.03.033.007.015.007.03.013.044zm-.046-7.62l-.953.952.953.953.952-.953-.952-.953zM18.86 4.347c.081-.003.154-.002.233-.004.11-.003.22-.01.331-.01l.05.001h.06c.215 0 .439.004.673.013V2.313h2.358a.338.338 0 00.337-.336.338.338 0 00-.337-.337h-6.062a.338.338 0 00-.337.337c0 .185.151.336.337.336h2.357v2.035zm-5.388 5.375a.673.673 0 110 1.347h-3.368a.673.673 0 110-1.347h3.368zm0 4.715a.673.673 0 110 1.347H6.736a.673.673 0 110-1.347h6.736zm0 4.715a.673.673 0 110 1.347H3.368a.673.673 0 110-1.347h10.104zm0 4.715a.673.673 0 110 1.347H.674a.673.673 0 110-1.347h12.798zm0 4.715a.673.673 0 110 1.347H4.715a.673.673 0 110-1.347h8.757zm0 4.715a.673.673 0 110 1.347H8.757a.673.673 0 110-1.347h4.715z"/></svg>