<svg xmlns="http://www.w3.org/2000/svg" width="22" height="22" viewBox="0 0 28 28" fill="none" class="_mr-2" data-v-af5b7f40=""><path fill-rule="evenodd" clip-rule="evenodd" d="M14 6.5C14.2761 6.5 14.5 6.72386 14.5 7V13.5H21C21.2761 13.5 21.5 13.7239 21.5 14C21.5 14.2761 21.2761 14.5 21 14.5H14.5L14.5 21C14.5 21.2761 14.2761 21.5 14 21.5C13.7239 21.5 13.5 21.2761 13.5 21L13.5 14.5H7C6.72386 14.5 6.5 14.2761 6.5 14C6.5 13.7239 6.72386 13.5 7 13.5H13.5L13.5 7C13.5 6.72386 13.7239 6.5 14 6.5Z" fill="#707780" data-v-af5b7f40=""/> <circle cx="14" cy="14" r="11.5" stroke="#707780" data-v-af5b7f40=""/></svg>