<svg xmlns="http://www.w3.org/2000/svg" width="80px" height="25px" viewBox="0 0 201 93" class="icon-colorful-tab" data-v-6decabd5=""><g id="Page-1" stroke="none" stroke-width="1" fill="none" fill-rule="evenodd"><g id="oxxo-1" fill-rule="nonzero"><path id="Path" d="M0,6.2851537 C0,2.82831916 2.81742728,0 6.25982949,0 L194.740171,0 C198.182573,0 201,2.82831916 201,6.2851537 L201,86.7148463 C201,90.1716808 198.182573,93 194.740171,93 L6.25982949,93 C2.80884648,92.9944383 0.0110919913,90.1853655 0,86.7148463 L0,6.2851537 Z" fill="#AFAFAF"/> <polygon id="Path" fill="#FFFFFF" points="0 10 201 10 201 84 0 84"/> <path id="Shape" d="M170.309327,28.0051422 C161.103773,28.0107648 153.63634,35.6096998 153.608573,45 C153.633561,54.3903041 161.098738,61.9915366 170.304286,62 C179.509835,61.9915366 186.975011,54.3903041 187,45 C186.975011,35.6096959 179.509835,28.0084634 170.304286,28 L170.309327,28.0051422 Z M32.6957137,28.0051422 C23.4921267,28.0135957 16.0277597,35.6117048 16,45 C16.0249887,54.3903041 23.4901652,61.9915366 32.6957137,62 C41.9012622,61.9915366 49.3664387,54.3903041 49.3914274,45 C49.3664387,35.6096959 41.9012622,28.0084634 32.6957137,28 L32.6957137,28.0051422 Z" fill="#AFAFAF"/> <path id="Shape" d="M169.035557,14.0092898 C153.577508,13.6513394 146.314694,23.6841773 135.770762,36.0590335 L125.826605,47.7333296 L141.576981,66.8274258 C145.32683,72.6978122 138.164819,78.5170627 133.724473,73.1478069 L119.158526,55.5571023 L104.970587,72.2171359 C100.449599,77.5199152 93.3732698,71.5932795 97.2088014,65.7842561 L112.606369,47.6412852 L102.516048,35.4505178 L109.007723,27.3097034 L119.269408,39.7919446 L128.11986,29.3704749 C132.459403,24.2568979 136.889669,17.4916357 142.625326,14.0092898 L0,14.0092898 L0,58.7148438 L0,80 C4.52256944,80 7.91449653,80 10.1757812,80 C15.3245935,80 23.0478118,80 33.3454363,80 C48.8034855,80 55.819333,70.6421542 66.0759779,58.0218464 L75.753009,46.1174393 L59.5742227,27.3966342 C55.69333,21.6182922 62.7142177,15.6302937 67.2805667,20.8921643 L82.2346038,38.1402593 L96.0445336,21.1529567 C100.444559,15.7427924 107.651931,21.5057935 103.957523,27.4068613 L88.9682046,45.9026691 L99.3357322,57.8582119 L92.8037362,65.6922118 L82.4815697,53.9054169 L73.8780843,64.5263162 C69.6544634,69.7421647 65.3754012,76.3847011 59.715346,80 L201,80 L201,14.0092898 L169.030517,14.0092898 L169.035557,14.0092898 Z M59.125652,45.7901704 C59.125652,60.5019312 47.2813691,72.4983826 32.7557422,72.4983826 C18.2250752,72.4983826 6.38079238,60.5019312 6.38079238,45.7901704 C6.38079238,31.0784096 18.2250752,19.0819581 32.7557422,19.0819581 C47.2813691,19.0819581 59.125652,31.0784096 59.125652,45.7901704 Z M170.340948,72.4983826 C155.815321,72.4983826 143.965998,60.5019312 143.965998,45.7901704 C143.965998,31.0784096 155.815321,19.0819581 170.340948,19.0819581 C184.871615,19.0819581 196.715898,31.0784096 196.715898,45.7901704 C196.715898,60.5019312 184.871615,72.4983826 170.340948,72.4983826 Z" fill="#AFAFAF"/></g></g></svg>